<?xml version="1.0" standalone="no"?>
<!DOCTYPE svg PUBLIC "-//W3C//DTD SVG 20010904//EN"
 "http://www.w3.org/TR/2001/REC-SVG-20010904/DTD/svg10.dtd">
<svg version="1.0" xmlns="http://www.w3.org/2000/svg"
 width="707.000000pt" height="707.000000pt" viewBox="0 0 707.000000 707.000000"
 preserveAspectRatio="xMidYMid meet">
<metadata>
Created by potrace 1.11, written by Peter Selinger 2001-2013
</metadata>
<g transform="translate(0.000000,707.000000) scale(0.100000,-0.100000)"
fill="#000000" stroke="none">
<path d="M3205 6875 c-537 -54 -1051 -235 -1498 -528 -279 -183 -488 -364
-696 -602 -227 -260 -425 -572 -556 -875 -552 -1275 -256 -2772 737 -3735 276
-269 518 -440 863 -610 946 -467 2045 -462 2994 14 322 162 589 357 857 625
293 294 481 560 659 929 289 601 381 1222 289 1955 -10 76 -24 64 -24 -22 0
-41 -3 -81 -6 -90 -7 -19 -45 -21 -62 -4 -18 18 -15 68 3 68 9 0 15 -9 15 -25
0 -28 15 -34 24 -9 3 9 6 47 6 85 0 55 3 69 15 69 19 0 19 -11 -9 122 -57 268
-142 512 -271 773 -52 105 -125 238 -162 298 -512 810 -1326 1359 -2263 1527
-271 48 -637 62 -915 35z m333 -101 c-2 -79 -6 -99 -20 -108 -27 -17 -52 4
-56 48 -2 27 1 36 12 36 10 0 16 -9 16 -24 0 -14 5 -28 10 -31 6 -4 10 27 10
84 0 75 3 91 15 91 13 0 15 -15 13 -96z m182 2 c0 -107 -11 -128 -55 -108 -20
9 -25 19 -25 47 0 24 5 35 15 35 9 0 15 -9 15 -24 0 -14 5 -28 10 -31 6 -4 10
27 10 84 0 74 3 91 15 91 12 0 15 -17 15 -94z m-350 15 c0 -50 -4 -74 -16 -85
-21 -22 -54 -4 -54 29 0 31 15 32 26 3 6 -17 9 -2 11 50 3 55 7 72 18 72 12 0
15 -15 15 -69z m251 -91 c-3 -172 -12 -204 -58 -213 -32 -6 -78 14 -87 38 -3
9 -6 39 -6 66 0 46 2 49 25 49 21 0 25 -5 25 -31 0 -45 18 -74 36 -58 11 9 14
43 14 161 l0 149 27 -3 28 -3 -4 -155z m-411 86 c0 -35 -3 -71 -6 -80 -6 -16
-54 -23 -54 -8 0 4 -3 17 -6 30 -4 12 -2 22 4 22 5 0 12 -9 15 -21 11 -41 27
-7 27 57 0 36 4 64 10 64 6 0 10 -28 10 -64z m688 -27 c-2 -75 -6 -94 -20
-103 -26 -16 -52 4 -56 43 -2 23 1 31 12 31 10 0 16 -9 16 -25 0 -14 5 -25 10
-25 6 0 10 35 10 85 0 70 3 85 15 85 13 0 15 -15 13 -91z m-98 -79 c0 -157 -1
-161 -25 -185 -30 -31 -71 -32 -102 -3 -19 18 -23 32 -23 80 0 55 1 58 25 58
22 0 25 -4 25 -34 0 -43 9 -66 25 -66 21 0 25 25 25 171 l0 139 25 0 25 0 0
-160z m180 2 c0 -128 -3 -162 -16 -180 -24 -35 -59 -45 -93 -27 -35 17 -41 32
-41 96 0 46 2 49 25 49 22 0 25 -4 25 -39 0 -21 6 -44 14 -50 27 -22 36 21 36
168 l0 141 25 0 25 0 0 -158z m-862 48 c2 -109 -9 -143 -50 -148 -31 -4 -58
28 -58 70 0 21 5 28 20 28 16 0 20 -7 20 -31 0 -20 4 -29 13 -27 8 3 13 36 15
107 2 90 5 102 20 99 14 -3 17 -18 20 -98z m327 -60 c-1 -131 -3 -159 -18
-181 -22 -32 -62 -42 -98 -23 -33 16 -39 32 -39 95 0 46 2 49 25 49 21 0 25
-5 25 -31 0 -45 18 -74 36 -58 11 9 14 43 14 161 l0 149 28 -3 27 -3 0 -155z
m-175 9 c0 -114 -1 -121 -24 -144 -42 -42 -96 -8 -96 62 0 36 3 43 19 43 16 0
20 -8 23 -37 2 -26 8 -38 18 -38 12 0 16 21 18 115 3 108 11 138 34 124 4 -3
8 -59 8 -125z m850 -152 c0 -266 -1 -275 -23 -318 -28 -54 -76 -82 -130 -75
-85 10 -119 60 -125 189 l-4 87 50 0 50 0 4 -70 c4 -74 21 -106 50 -95 9 4 19
16 22 28 3 12 6 136 6 275 l0 252 50 0 50 0 0 -273z m-1160 148 c0 -92 -3
-108 -20 -125 -24 -24 -43 -25 -64 -4 -20 20 -21 80 -2 87 11 4 16 -3 18 -26
2 -18 8 -32 13 -32 6 0 11 43 13 103 2 94 4 102 22 102 19 0 20 -7 20 -105z
m1280 18 c0 -88 -13 -123 -46 -123 -18 0 -44 40 -44 67 0 32 28 29 32 -2 2
-14 8 -26 13 -25 6 0 11 37 13 85 2 67 6 85 17 85 12 0 15 -17 15 -87z m98
-88 c-3 -154 -4 -166 -25 -186 -28 -28 -77 -29 -104 -3 -14 14 -20 36 -22 74
-2 53 -1 55 26 58 25 3 27 1 27 -36 0 -38 19 -69 33 -55 4 3 7 72 7 153 0 81
3 150 7 153 3 4 17 7 30 7 l24 0 -3 -165z m137 -160 c0 -265 0 -271 -23 -311
-42 -72 -111 -93 -181 -56 -54 29 -71 72 -71 175 l0 88 48 -3 47 -3 5 -72 c5
-79 20 -104 48 -87 15 10 18 40 22 275 3 145 7 265 8 267 1 2 23 2 50 0 l47
-3 0 -270z m-1915 128 c0 -134 -10 -166 -54 -171 -42 -5 -66 22 -66 75 0 36 3
43 20 43 15 0 20 -7 20 -29 0 -34 18 -51 31 -30 5 8 9 62 9 122 0 100 1 107
20 107 19 0 20 -7 20 -117z m2020 63 c0 -75 -14 -108 -43 -104 -16 2 -23 11
-25 31 -4 33 12 36 24 5 6 -17 9 -2 11 50 3 55 7 72 18 72 11 0 15 -13 15 -54z
m-1902 -171 c4 -254 -15 -305 -111 -305 -31 0 -45 7 -68 31 -27 29 -29 37 -29
105 l0 74 35 0 35 0 0 -48 c0 -60 20 -93 44 -73 14 12 16 42 16 213 l0 199 38
-3 37 -3 3 -190z m-278 76 c0 -96 -9 -115 -52 -109 -19 2 -24 10 -26 41 -2 28
0 37 12 37 10 0 16 -9 16 -25 0 -14 5 -25 10 -25 6 0 10 35 10 85 0 69 3 85
15 85 12 0 15 -17 15 -89z m2238 -11 c5 -146 -10 -190 -63 -190 -36 0 -55 26
-55 76 0 37 3 44 19 44 16 0 20 -8 23 -37 2 -21 8 -38 13 -38 6 0 11 45 13
110 3 126 5 138 29 133 15 -3 18 -17 21 -98z m222 -4 c0 -64 -4 -88 -16 -100
-8 -9 -19 -16 -24 -16 -5 0 -16 7 -24 16 -21 20 -21 74 -1 74 9 0 15 -9 15
-25 0 -14 5 -25 10 -25 6 0 10 33 10 80 0 64 3 80 15 80 12 0 15 -16 15 -84z
m-2572 -13 c-3 -72 -5 -78 -25 -81 -17 -3 -26 3 -33 23 -10 27 -6 45 11 45 5
0 9 -9 9 -20 0 -11 5 -20 10 -20 6 0 10 28 10 65 0 38 4 65 10 65 7 0 10 -29
8 -77z m550 -247 c3 -356 -3 -396 -59 -460 -75 -86 -218 -66 -268 37 -22 45
-38 196 -27 242 6 25 9 26 64 23 l57 -3 6 -85 c4 -47 10 -93 14 -102 8 -20 30
-29 49 -22 31 12 36 67 36 374 0 169 3 310 7 314 4 4 32 6 63 4 l55 -3 3 -319z
m1902 107 c0 -104 -5 -205 -10 -225 -12 -43 -61 -88 -95 -88 -71 0 -105 47
-105 145 l0 65 35 0 35 0 0 -48 c0 -60 20 -93 44 -73 14 12 16 42 16 212 l0
199 40 0 40 0 0 -187z m-1617 128 c15 -12 17 -64 17 -560 0 -558 -4 -628 -40
-724 -95 -251 -399 -290 -545 -69 -42 64 -55 140 -55 319 0 96 4 164 10 168
20 12 199 13 209 1 5 -6 11 -76 13 -156 3 -124 6 -150 24 -180 23 -41 73 -53
104 -25 37 33 40 87 40 665 l0 561 23 9 c33 14 181 8 200 -9z m1927 -44 c0
-29 -3 -62 -6 -74 -7 -27 -32 -37 -50 -22 -16 13 -19 59 -4 59 6 0 10 -9 10
-20 0 -11 5 -20 10 -20 6 0 10 28 10 63 0 35 3 67 6 70 15 15 24 -7 24 -56z
m-2972 -138 c-3 -135 -5 -152 -22 -165 -55 -40 -119 6 -114 80 2 34 7 42 26
44 19 3 22 -1 22 -30 0 -39 13 -63 29 -54 7 5 11 54 11 142 l0 134 26 0 25 0
-3 -151z m120 -99 c2 -124 0 -239 -3 -255 -3 -17 -17 -46 -33 -64 -49 -59
-152 -50 -185 17 -14 27 -28 157 -20 180 3 7 21 12 43 12 45 0 50 -9 50 -86 0
-58 16 -78 45 -54 12 10 15 51 15 240 0 124 3 230 7 234 4 4 23 6 43 4 l35 -3
3 -225z m1422 187 c19 -7 40 -23 47 -37 16 -32 8 -1981 -8 -2130 -43 -381
-279 -640 -585 -640 -273 0 -493 174 -566 448 -17 67 -21 118 -25 389 l-6 311
24 24 c24 23 27 24 198 22 165 -1 175 -2 192 -23 25 -30 30 -91 28 -306 -2
-159 0 -200 16 -253 40 -139 140 -182 222 -96 70 75 67 20 73 1201 4 851 8
1065 18 1075 23 23 313 35 372 15z m-1710 -95 c0 -94 -8 -112 -47 -112 -23 0
-43 31 -43 66 0 23 28 16 32 -8 2 -12 9 -23 16 -26 9 -3 12 18 12 82 0 70 3
86 15 86 12 0 15 -16 15 -88z m505 -372 l0 -445 -24 -52 c-20 -46 -97 -132
-118 -133 -5 -1 -28 -5 -52 -9 -65 -13 -135 11 -187 63 -59 59 -75 120 -72
272 l3 119 77 3 c91 3 86 11 90 -139 2 -79 7 -101 22 -118 24 -27 48 -27 72 0
18 20 19 44 22 447 2 321 6 428 15 434 7 5 44 7 82 6 l70 -3 0 -445z m2403
373 c-3 -76 -4 -78 -28 -78 -20 0 -26 6 -28 28 -2 15 1 27 7 27 6 0 11 -9 11
-20 0 -11 5 -20 10 -20 6 0 10 30 10 70 0 42 4 70 10 70 7 0 10 -29 8 -77z
m112 -185 c0 -285 -7 -318 -72 -358 -42 -25 -61 -25 -114 0 -57 28 -74 66 -74
169 l0 81 45 0 45 0 0 -55 c0 -57 16 -105 35 -105 32 0 35 24 35 265 0 133 3
245 7 248 3 4 26 7 50 7 l43 0 0 -252z m210 192 c13 -8 15 -64 12 -427 -3
-450 -6 -480 -57 -558 -40 -60 -86 -88 -156 -93 -104 -8 -187 43 -226 137 -21
49 -31 285 -13 306 18 22 145 21 154 -1 3 -9 6 -55 6 -104 0 -122 16 -159 67
-160 46 0 48 19 53 470 l5 425 45 6 c71 10 94 9 110 -1z m-1330 -123 c0 -68
-4 -109 -12 -119 -36 -44 -88 -19 -88 43 0 28 4 39 15 39 8 0 15 -9 15 -19 0
-28 11 -52 21 -45 5 3 9 50 9 105 0 92 1 99 20 99 19 0 20 -7 20 -103z m1478
-51 c3 -110 -10 -146 -52 -146 -30 0 -45 19 -53 64 -5 32 -3 36 15 36 15 0 22
-7 24 -27 2 -14 9 -28 16 -31 9 -3 12 22 12 103 0 96 2 106 18 103 15 -3 17
-17 20 -102z m-3600 -27 c2 -78 -11 -121 -40 -127 -23 -4 -48 25 -48 59 0 36
27 40 32 4 2 -14 8 -26 13 -25 6 0 11 37 13 86 2 61 6 84 15 81 8 -2 13 -31
15 -78z m3682 -86 c0 -140 -3 -174 -18 -203 -23 -46 -60 -59 -106 -37 -39 18
-60 67 -54 127 3 31 6 35 33 35 29 0 30 -2 35 -50 4 -36 9 -50 20 -50 13 0 15
26 18 160 1 88 4 166 7 173 2 6 18 12 35 12 l30 0 0 -167z m-3602 12 c4 -155
-2 -190 -33 -221 -31 -31 -69 -31 -100 1 -21 20 -25 34 -25 80 0 56 0 56 28
53 24 -3 27 -8 30 -43 4 -47 18 -67 32 -45 5 8 10 82 10 163 l0 148 28 -3 27
-3 3 -130z m137 -165 c0 -303 -1 -310 -65 -364 -58 -48 -159 -26 -194 43 -10
19 -17 63 -18 118 l-3 88 50 0 50 0 5 -70 c5 -75 13 -95 35 -95 30 0 35 40 35
293 0 139 3 257 7 261 4 4 28 6 53 4 l45 -3 0 -275z m3609 224 c14 -5 16 -41
16 -293 0 -304 -5 -343 -47 -400 -66 -87 -199 -75 -250 22 -12 23 -17 59 -17
132 l-1 100 49 3 c32 2 52 -1 57 -10 5 -7 9 -45 9 -84 0 -57 4 -74 19 -88 18
-17 20 -17 40 3 20 20 21 31 21 311 l0 291 23 9 c26 11 60 12 81 4z m156 -113
c0 -55 -3 -107 -6 -116 -8 -20 -48 -37 -69 -29 -16 7 -39 79 -30 94 14 22 35
10 35 -20 0 -20 5 -30 15 -30 12 0 15 18 15 100 0 93 1 100 20 100 19 0 20 -7
20 -99z m-4190 -44 c0 -139 -10 -167 -60 -167 -41 0 -60 24 -60 76 0 37 3 44
20 44 16 0 20 -7 20 -34 0 -38 17 -57 31 -35 5 8 9 65 9 127 0 105 1 112 20
112 19 0 20 -7 20 -123z m100 -118 c0 -222 -7 -257 -61 -284 -42 -22 -75 -18
-111 14 -30 27 -33 34 -36 106 l-4 76 38 -3 39 -3 3 -50 c4 -58 18 -81 38 -64
11 9 14 54 14 210 l0 199 40 0 40 0 0 -201z m2230 84 c0 -85 -3 -110 -17 -125
-34 -38 -83 -11 -83 48 0 41 27 48 32 9 2 -14 8 -27 13 -28 6 -1 11 39 13 101
2 94 4 102 22 102 19 0 20 -7 20 -107z m662 96 c61 -13 107 -38 126 -70 12
-18 14 -264 12 -1423 -1 -771 -6 -1615 -10 -1876 -9 -502 -12 -532 -64 -723
-122 -442 -394 -747 -750 -840 -64 -16 -111 -21 -221 -21 -195 0 -314 27 -482
111 -302 150 -507 454 -552 818 -13 108 -31 588 -31 842 0 203 10 270 45 306
l24 24 310 1 310 1 30 -25 c52 -44 55 -65 56 -484 1 -323 4 -397 19 -463 44
-200 128 -300 251 -300 131 0 223 114 261 323 15 86 18 359 3 322 -14 -37 -53
-26 -57 16 -2 18 1 32 7 32 6 0 11 -9 11 -20 0 -11 5 -20 10 -20 6 0 10 28 10
65 0 51 3 65 15 65 13 0 15 194 17 1624 l3 1625 21 28 c35 48 66 56 239 63
257 11 331 11 387 -1z m1278 -236 c0 -140 -3 -174 -18 -202 -23 -46 -62 -59
-108 -38 -37 18 -47 43 -48 117 -1 43 0 45 29 45 28 0 30 -2 33 -45 4 -56 18
-72 38 -46 11 15 14 56 14 178 l0 158 30 0 30 0 0 -167z m-4490 58 c0 -68 -4
-93 -16 -105 -30 -31 -63 -11 -67 40 -2 32 20 45 25 13 2 -12 9 -24 16 -27 9
-3 12 18 12 82 0 70 3 86 15 86 12 0 15 -17 15 -89z m78 -106 c-3 -154 -4
-166 -25 -186 -28 -28 -77 -29 -104 -3 -14 14 -20 36 -22 74 -2 53 -1 55 26
58 25 3 27 1 27 -36 0 -38 19 -69 33 -55 4 3 7 72 7 153 0 81 3 150 7 153 3 4
17 7 30 7 l24 0 -3 -165z m4567 -200 c0 -298 -1 -312 -21 -350 -12 -22 -31
-48 -42 -58 -46 -42 -141 -39 -190 6 -42 39 -55 77 -60 180 l-5 98 59 -3 59
-3 5 -80 c3 -44 9 -86 13 -92 11 -18 32 -16 51 3 14 13 16 55 16 308 0 161 3
296 7 300 4 4 30 6 58 4 l50 -3 0 -310z m-4757 194 c-2 -57 -7 -74 -21 -83
-15 -9 -21 -7 -33 8 -18 26 -18 46 1 46 8 0 14 -3 14 -7 -3 -19 2 -33 11 -33
6 0 10 30 10 70 0 42 4 70 10 70 7 0 10 -27 8 -71z m4862 -37 c0 -70 -10 -92
-41 -92 -18 0 -29 19 -29 51 0 28 17 23 24 -6 11 -45 26 -16 26 51 0 36 4 64
10 64 6 0 10 -29 10 -68z m-3780 4 c0 -75 -14 -108 -43 -104 -17 2 -23 11 -25
36 -2 18 1 32 7 32 6 0 11 -9 11 -19 0 -11 5 -23 10 -26 6 -4 10 20 10 64 0
56 3 71 15 71 11 0 15 -13 15 -54z m1578 -41 c3 -104 -9 -145 -43 -145 -33 0
-55 26 -55 66 0 42 27 48 32 7 2 -14 9 -28 16 -31 9 -3 12 20 12 91 0 51 3 97
7 101 19 19 28 -8 31 -89z m1152 2 c0 -69 -15 -101 -46 -96 -13 3 -20 14 -22
37 -2 18 1 32 7 32 6 0 11 -9 11 -19 0 -11 5 -23 10 -26 6 -4 10 20 10 64 0
56 3 71 15 71 12 0 15 -14 15 -63z m-2090 -82 c0 -92 -3 -108 -20 -125 -24
-24 -38 -25 -62 -3 -23 20 -26 93 -4 93 8 0 16 -12 18 -27 2 -14 9 -28 16 -31
9 -3 12 21 12 97 0 94 1 101 20 101 19 0 20 -7 20 -105z m-1810 -50 c0 -101
-11 -140 -42 -149 -29 -7 -68 35 -68 74 0 23 4 30 19 30 15 0 21 -8 23 -32 2
-18 8 -33 13 -33 6 0 11 43 13 103 2 94 4 102 22 102 18 0 20 -7 20 -95z
m5008 -33 c3 -119 2 -123 -23 -148 -45 -45 -95 -12 -95 63 0 36 3 43 20 43 16
0 20 -7 20 -34 0 -38 17 -57 31 -35 5 8 9 62 9 120 0 58 3 109 7 113 21 20 28
-9 31 -122z m-4913 -112 c0 -229 -6 -255 -67 -286 -26 -13 -38 -14 -69 -5 -50
15 -69 48 -76 132 l-6 69 42 0 41 0 0 -48 c0 -27 6 -56 13 -67 13 -17 15 -17
30 6 14 20 17 52 17 210 0 199 0 200 50 196 l25 -2 0 -205z m5015 -40 c0 -216
-7 -253 -51 -284 -26 -18 -81 -21 -110 -6 -32 18 -49 64 -49 135 l0 65 35 0
c38 0 42 -8 47 -85 2 -32 7 -40 23 -40 19 0 20 8 23 195 1 107 4 201 7 208 2
6 20 12 40 12 l35 0 0 -200z m-2360 37 c0 -68 -4 -109 -12 -119 -36 -44 -88
-19 -88 43 0 28 4 39 15 39 8 0 15 -9 15 -19 0 -28 11 -52 21 -45 5 3 9 50 9
105 0 92 1 99 20 99 19 0 20 -7 20 -103z m-2952 22 c-2 -57 -7 -74 -21 -83
-15 -9 -21 -7 -33 8 -16 22 -19 56 -5 56 5 0 11 -9 14 -20 3 -11 10 -20 16
-20 7 0 11 25 11 65 0 38 4 65 10 65 7 0 10 -27 8 -71z m1092 -49 c0 -138 -13
-183 -54 -194 -52 -13 -86 27 -86 100 0 29 3 34 24 34 21 0 25 -5 28 -37 2
-26 8 -38 18 -38 12 0 15 22 18 128 l3 127 24 0 25 0 0 -120z m4322 5 c-2 -87
-12 -115 -38 -115 -22 0 -44 30 -44 61 0 19 5 29 15 29 9 0 15 -9 15 -24 0
-30 15 -42 24 -20 3 9 6 49 6 91 0 55 3 74 13 70 9 -3 11 -29 9 -92z m-4571
58 c19 -19 13 -1341 -6 -1437 -30 -144 -115 -269 -220 -324 -44 -23 -61 -26
-145 -26 -80 1 -104 5 -152 26 -111 51 -192 154 -217 278 -17 88 -19 423 -2
443 20 25 232 25 252 0 10 -12 15 -64 19 -192 4 -150 8 -181 24 -208 43 -71
117 -62 152 19 18 40 19 84 22 731 l3 688 22 9 c32 14 233 8 248 -7z m-781
-116 c0 -137 -10 -167 -57 -167 -41 0 -63 27 -63 77 0 36 3 43 19 43 15 0 21
-8 23 -32 2 -21 8 -33 18 -33 12 0 16 21 18 118 2 109 4 117 22 117 19 0 20
-7 20 -123z m425 109 c17 -13 18 -30 12 -389 -8 -403 -11 -425 -63 -494 -92
-121 -288 -81 -332 67 -12 41 -23 220 -15 250 5 18 13 20 73 20 79 0 80 -1 79
-118 -1 -39 2 -80 6 -91 8 -25 38 -43 58 -35 34 13 37 51 37 419 0 336 1 365
18 374 25 15 105 13 127 -3z m3853 -103 c-3 -76 -4 -78 -28 -78 -20 0 -26 6
-28 28 -2 15 1 27 7 27 6 0 11 -9 11 -20 0 -11 5 -20 10 -20 6 0 10 30 10 70
0 42 4 70 10 70 7 0 10 -29 8 -77z m-3398 -17 c0 -62 -14 -96 -40 -96 -12 0
-30 34 -30 54 0 23 17 20 23 -4 3 -11 10 -20 16 -20 7 0 11 25 11 65 0 37 4
65 10 65 6 0 10 -28 10 -64z m248 -16 c-4 -76 -18 -101 -46 -84 -18 12 -29 54
-14 54 5 0 13 -10 18 -22 6 -17 9 -2 11 50 3 57 7 72 20 72 13 0 15 -11 11
-70z m350 -46 c-2 -79 -6 -99 -20 -108 -26 -16 -52 4 -56 43 -2 23 1 31 12 31
10 0 16 -9 16 -25 0 -14 5 -25 10 -25 6 0 10 34 10 83 0 46 3 87 7 90 19 19
23 -2 21 -89z m2310 25 c-2 -57 -7 -74 -21 -83 -15 -9 -21 -7 -33 8 -8 11 -14
26 -14 33 0 20 18 15 25 -7 12 -38 25 -9 25 56 0 38 4 64 10 64 7 0 10 -27 8
-71z m796 3 c18 -16 18 -44 13 -717 -4 -673 -5 -703 -25 -778 -40 -147 -112
-246 -215 -297 -34 -16 -82 -33 -107 -36 -104 -14 -260 43 -326 119 -67 77
-93 149 -105 287 -15 168 -9 358 11 370 8 5 65 10 126 10 92 0 114 -3 125 -16
10 -12 15 -65 19 -193 5 -139 9 -183 23 -208 19 -36 53 -63 78 -63 29 0 75 47
87 88 9 28 12 228 12 725 0 794 -10 724 105 730 98 5 157 -2 179 -21z m-734
-133 c0 -114 -1 -121 -24 -144 -42 -42 -96 -8 -96 62 0 36 3 43 19 43 16 0 20
-8 23 -37 2 -26 8 -38 18 -38 12 0 16 21 18 115 3 108 11 138 34 124 4 -3 8
-59 8 -125z m1600 -80 c0 -166 -3 -207 -17 -236 -35 -74 -125 -81 -170 -14
-18 27 -23 48 -23 98 l0 64 38 -3 37 -3 3 -52 c3 -59 21 -83 43 -57 11 13 15
64 17 211 l4 193 34 0 34 0 0 -201z m-92 100 c2 -79 -11 -121 -41 -127 -28 -6
-47 17 -47 54 0 24 5 34 15 34 9 0 15 -9 15 -24 0 -30 15 -42 24 -20 3 9 6 49
6 91 0 55 3 74 13 71 8 -3 13 -30 15 -79z m-1338 -134 c0 -221 -6 -257 -51
-289 -47 -33 -127 -10 -147 41 -13 35 -22 137 -14 149 4 5 22 10 40 12 32 3
32 3 32 -40 0 -67 9 -90 34 -86 21 3 21 8 24 211 l2 207 40 0 40 0 0 -205z
m-4240 92 c0 -95 -8 -117 -41 -117 -22 0 -40 23 -42 56 -2 32 20 45 25 13 2
-12 9 -24 16 -27 9 -3 12 18 12 82 0 70 3 86 15 86 12 0 15 -17 15 -93z m4428
81 c14 -14 15 -236 3 -558 -8 -213 -15 -243 -78 -302 -82 -77 -221 -47 -275
61 -26 50 -28 64 -28 168 l0 114 68 -3 67 -3 5 -96 c5 -100 17 -129 51 -129
10 0 25 10 33 22 14 19 16 72 16 374 0 273 3 353 13 357 25 10 113 7 125 -5z
m-2643 -145 c0 -136 -1 -142 -24 -167 -14 -14 -34 -26 -46 -26 -33 0 -65 36
-66 75 -1 19 -2 41 -3 48 -1 6 10 12 24 12 22 0 25 -5 28 -37 2 -25 8 -38 18
-38 11 0 14 24 14 133 0 74 3 137 7 141 4 4 16 6 28 4 19 -3 20 -10 20 -145z
m720 36 c0 -115 -9 -139 -51 -139 -28 0 -54 35 -54 72 0 21 5 28 20 28 16 0
20 -7 20 -31 0 -20 4 -29 13 -27 8 3 13 36 15 107 2 90 5 102 20 99 15 -3 17
-17 17 -109z m605 -14 c0 -92 -3 -108 -20 -125 -24 -24 -29 -24 -58 -4 -16 11
-22 25 -22 55 0 49 27 56 32 7 2 -17 9 -33 16 -36 9 -3 12 22 12 102 0 99 1
106 20 106 19 0 20 -7 20 -105z m-1539 60 c15 -8 29 -22 33 -30 11 -29 7
-2273 -4 -2370 -33 -288 -165 -533 -350 -650 -165 -104 -395 -112 -589 -20
-179 85 -313 254 -356 450 -17 80 -39 514 -33 674 3 98 5 104 31 127 27 23 33
24 212 24 101 0 191 -3 200 -6 8 -4 23 -20 32 -38 13 -26 16 -66 14 -254 -1
-239 8 -327 41 -404 66 -154 214 -143 280 21 l23 56 5 1192 5 1192 23 23 c20
20 36 23 145 29 148 8 252 2 288 -16z m-1491 -135 c0 -166 -10 -205 -55 -216
-64 -16 -110 35 -103 114 3 32 7 37 30 40 26 3 27 1 30 -45 2 -35 7 -48 18
-48 13 0 15 25 18 153 l3 152 29 0 30 0 0 -150z m1020 86 c0 -80 -6 -96 -35
-96 -24 0 -35 17 -35 52 0 26 24 18 28 -10 7 -46 22 -8 22 54 0 36 4 64 10 64
6 0 10 -28 10 -64z m-902 -235 c2 -241 1 -256 -19 -298 -47 -98 -174 -99 -224
-3 -10 19 -15 58 -15 110 l0 80 44 0 44 0 4 -65 c5 -74 25 -108 52 -85 14 11
16 48 16 256 0 269 -1 267 65 261 l30 -2 3 -254z m272 168 c0 -44 -5 -89 -10
-100 -12 -21 -40 -25 -58 -7 -18 18 -15 68 3 68 9 0 15 -9 15 -25 0 -14 5 -25
10 -25 6 0 10 33 10 78 0 43 3 82 7 85 17 18 23 0 23 -74z m5290 18 c0 -75
-20 -113 -51 -97 -11 6 -19 21 -19 35 0 31 15 32 26 3 6 -17 9 -2 11 50 3 55
7 72 18 72 12 0 15 -14 15 -63z m-3860 -42 c0 -84 -2 -95 -20 -105 -32 -17
-60 4 -60 45 0 24 5 35 15 35 9 0 15 -9 15 -25 0 -14 5 -25 10 -25 6 0 10 35
10 85 0 69 3 85 15 85 12 0 15 -17 15 -95z m-1612 8 c-3 -76 -4 -78 -28 -78
-20 0 -26 6 -28 28 -2 15 1 27 7 27 6 0 11 -9 11 -20 0 -11 5 -20 10 -20 6 0
10 30 10 70 0 42 4 70 10 70 7 0 10 -29 8 -77z m4620 1 c4 -68 -11 -106 -41
-102 -16 2 -23 11 -25 31 -2 15 1 27 7 27 6 0 11 -9 11 -20 0 -11 5 -20 10
-20 6 0 10 30 10 71 0 52 3 70 13 67 7 -3 13 -26 15 -54z m910 -71 c3 -134
-10 -173 -58 -173 -41 0 -60 24 -60 76 0 37 3 44 19 44 16 0 20 -8 23 -37 2
-21 8 -38 13 -38 6 0 11 45 13 110 3 126 5 138 29 133 16 -3 18 -18 21 -115z
m-3510 15 c3 -91 -8 -128 -41 -128 -31 0 -47 18 -47 52 0 34 27 39 32 6 2 -13
8 -22 13 -21 6 2 11 41 13 89 2 61 6 84 15 81 8 -2 13 -31 15 -79z m3035 51
c21 -6 47 -19 58 -30 20 -20 20 -34 16 -1192 -3 -1048 -5 -1180 -20 -1247 -92
-410 -320 -637 -639 -632 -185 2 -326 59 -449 182 -83 83 -145 190 -174 305
-20 77 -34 304 -35 562 0 218 5 246 49 260 20 7 252 9 384 4 38 -2 47 -56 47
-293 0 -250 9 -329 46 -405 32 -66 68 -93 126 -93 72 0 116 40 150 140 l23 65
3 1166 c3 1358 -15 1200 135 1210 159 10 241 9 280 -2z m-4243 -93 c0 -80 -6
-96 -35 -96 -22 0 -35 17 -35 46 0 8 7 14 15 14 8 0 15 -9 15 -21 0 -11 5 -17
10 -14 6 3 10 35 10 71 0 36 4 64 10 64 6 0 10 -28 10 -64z m1270 -86 c0 -115
-1 -122 -25 -145 -29 -30 -49 -31 -75 -5 -14 14 -20 33 -20 63 0 36 3 43 20
44 16 1 20 -4 20 -32 0 -37 17 -56 31 -34 5 8 9 62 9 122 0 100 1 107 20 107
19 0 20 -7 20 -120z m1640 56 c0 -35 -3 -71 -6 -80 -6 -16 -54 -23 -54 -8 0 4
-3 17 -6 30 -4 12 -2 22 4 22 5 0 12 -9 15 -21 11 -41 27 -7 27 57 0 36 4 64
10 64 6 0 10 -28 10 -64z m-1522 -164 c2 -194 1 -217 -17 -258 -26 -58 -71
-80 -127 -61 -57 19 -78 55 -82 143 l-4 74 40 0 40 0 4 -60 c5 -75 21 -95 49
-61 17 21 19 41 19 225 0 112 3 206 7 210 4 4 21 6 38 4 l30 -3 3 -213z
m-2668 54 c0 -64 -4 -88 -16 -100 -8 -9 -19 -16 -24 -16 -5 0 -16 7 -24 16
-21 20 -21 64 -1 64 8 0 15 -9 15 -20 0 -11 5 -20 10 -20 6 0 10 33 10 80 0
64 3 80 15 80 12 0 15 -16 15 -84z m80 -87 l0 -161 -29 -29 c-35 -35 -61 -37
-95 -6 -21 18 -26 33 -28 77 -3 53 -2 55 24 58 25 3 27 0 30 -40 2 -31 8 -44
21 -46 16 -3 17 9 17 146 0 82 3 152 7 155 3 4 17 7 30 7 l23 0 0 -161z m1840
42 c0 -116 -9 -141 -50 -141 -26 0 -52 42 -48 77 4 38 31 37 38 -2 11 -64 25
-27 28 73 2 82 6 102 17 102 12 0 15 -20 15 -109z m4150 -15 c0 -77 -6 -96
-31 -96 -21 0 -43 35 -35 56 8 20 26 8 26 -17 0 -11 5 -17 10 -14 6 3 10 35
10 71 0 36 4 64 10 64 6 0 10 -28 10 -64z m-2780 -49 c0 -77 -4 -108 -16 -125
-31 -45 -84 -14 -84 50 0 27 4 38 15 38 8 0 15 -9 15 -19 0 -28 11 -52 21 -45
5 3 9 50 9 105 0 92 1 99 20 99 19 0 20 -7 20 -103z m1800 31 c0 -29 -3 -63
-6 -75 -7 -27 -32 -37 -50 -22 -16 13 -19 59 -4 59 6 0 10 -9 10 -20 0 -11 5
-20 10 -20 6 0 10 28 10 65 0 51 3 65 15 65 11 0 15 -12 15 -52z m640 -36 c0
-63 -4 -94 -16 -110 -29 -42 -74 -22 -74 35 0 23 5 33 15 33 9 0 15 -9 15 -25
0 -28 15 -34 24 -9 3 9 6 49 6 90 0 59 3 74 15 74 12 0 15 -16 15 -88z m-1270
10 c0 -70 -10 -92 -41 -92 -17 0 -29 19 -29 46 0 22 17 17 23 -7 11 -41 27 -7
27 57 0 36 4 64 10 64 6 0 10 -29 10 -68z m1498 49 c10 -6 12 -71 10 -317 -3
-306 -3 -309 -27 -351 -48 -83 -152 -105 -222 -46 -48 40 -58 72 -61 180 l-3
98 55 0 55 0 5 -80 c5 -88 12 -105 39 -105 43 0 46 18 49 326 3 292 3 293 25
297 38 7 62 7 75 -2z m-148 -165 c0 -161 0 -163 -26 -191 -21 -22 -31 -26 -57
-21 -48 9 -67 39 -67 102 0 51 1 54 25 54 21 0 25 -5 25 -31 0 -17 5 -40 11
-51 11 -21 12 -21 25 -3 10 14 14 57 14 162 l0 143 25 0 25 0 0 -164z m340 15
c0 -125 -2 -141 -21 -165 -44 -55 -109 -21 -117 62 -4 51 -4 52 22 52 23 0 26
-4 26 -34 0 -33 20 -62 33 -49 4 3 7 66 7 140 l0 133 25 0 25 0 0 -139z
m-4870 15 c0 -80 -6 -96 -35 -96 -24 0 -35 17 -35 52 0 26 24 18 28 -10 7 -46
22 -8 22 54 0 36 4 64 10 64 6 0 10 -28 10 -64z m2930 -24 c0 -93 -8 -112 -46
-112 -26 0 -29 4 -39 48 -5 25 -3 32 8 32 8 0 18 -11 21 -25 12 -49 26 -14 26
66 0 64 3 79 15 79 12 0 15 -16 15 -88z m-2330 -121 c0 -76 -16 -105 -45 -81
-17 14 -21 60 -5 60 6 0 10 -9 10 -20 0 -11 5 -20 10 -20 6 0 10 28 10 65 0
37 4 65 10 65 6 0 10 -30 10 -69z m-1672 -46 c-4 -67 -16 -88 -48 -82 -17 3
-27 67 -11 67 6 0 11 -9 11 -20 0 -11 5 -20 10 -20 6 0 10 28 10 63 0 35 3 67
7 71 16 16 25 -17 21 -79z m192 -3 c0 -86 -8 -112 -36 -112 -7 0 -20 7 -28 16
-21 20 -21 64 -1 64 8 0 15 -9 15 -19 0 -26 16 -35 24 -15 3 9 6 47 6 85 0 39
4 69 10 69 6 0 10 -36 10 -88z m468 -66 c-3 -160 -13 -186 -70 -186 -44 0 -68
31 -68 90 0 47 2 50 25 50 23 0 25 -4 25 -41 0 -33 3 -40 18 -37 15 3 17 19
20 136 l3 132 25 0 25 0 -3 -144z m412 66 c0 -70 -10 -92 -41 -92 -17 0 -29
19 -29 46 0 22 17 17 23 -7 11 -41 27 -7 27 57 0 36 4 64 10 64 6 0 10 -29 10
-68z m2010 -41 c0 -123 -9 -156 -44 -173 -20 -9 -30 -8 -51 6 -21 14 -25 24
-25 61 0 38 3 45 19 45 15 0 21 -8 23 -32 2 -17 8 -33 14 -35 17 -6 24 32 24
140 0 90 1 97 20 97 19 0 20 -7 20 -109z m-3402 -11 c-3 -111 -7 -123 -44
-134 -31 -9 -55 15 -61 62 -5 38 -3 42 15 42 16 0 21 -7 24 -32 2 -18 8 -33
13 -33 6 0 11 43 13 103 3 95 4 102 23 102 20 0 21 -5 17 -110z m2060 20 c6
-152 -10 -200 -67 -200 -37 0 -52 20 -59 75 -4 43 -3 45 21 45 23 0 26 -5 29
-37 2 -21 8 -37 13 -36 6 2 11 54 13 124 3 118 3 120 25 117 20 -3 22 -9 25
-88z m2260 -20 c-2 -66 -7 -85 -20 -94 -26 -16 -52 4 -56 43 -2 23 1 31 12 31
10 0 16 -9 16 -25 0 -14 5 -25 10 -25 6 0 10 33 10 78 0 43 3 82 7 86 16 16
24 -17 21 -94z m882 33 c0 -32 -3 -68 -6 -80 -7 -27 -32 -37 -50 -22 -16 13
-19 59 -4 59 6 0 10 -9 10 -20 0 -11 5 -20 10 -20 6 0 10 30 10 70 0 56 3 70
15 70 12 0 15 -13 15 -57z m-5120 -118 c0 -182 -10 -226 -54 -246 -66 -30
-126 29 -126 124 l0 48 33 -3 c31 -3 32 -5 37 -53 4 -36 9 -50 20 -50 13 0 15
26 18 160 1 88 4 166 7 173 2 6 18 12 35 12 l30 0 0 -165z m128 126 c10 -6 13
-67 10 -297 l-3 -289 -27 -46 c-20 -34 -38 -51 -68 -63 -54 -21 -75 -20 -121
6 -58 32 -79 83 -79 192 l0 87 53 -3 52 -3 5 -78 c5 -76 18 -102 45 -94 30 10
35 56 35 319 0 245 1 267 18 271 29 8 66 7 80 -2z m2492 -109 c0 -101 -7 -122
-41 -122 -22 0 -49 37 -49 67 0 29 28 30 32 1 2 -12 9 -23 16 -26 9 -3 12 19
12 87 0 74 3 91 15 91 12 0 15 -18 15 -98z m3617 25 c12 -12 13 -94 6 -513
l-8 -499 -28 -60 c-53 -114 -124 -165 -230 -165 -109 0 -194 57 -240 160 -16
35 -21 74 -25 181 -3 75 -2 149 2 163 6 25 8 26 91 26 82 0 86 -1 95 -25 5
-14 9 -72 8 -128 -1 -141 26 -191 88 -164 48 20 49 32 54 547 l5 485 50 6 c65
9 115 3 132 -14z m-1619 -84 c-3 -76 -4 -78 -28 -78 -20 0 -26 6 -28 28 -2 15
1 27 7 27 6 0 11 -9 11 -20 0 -11 5 -20 10 -20 6 0 10 30 10 70 0 42 4 70 10
70 7 0 10 -29 8 -77z m82 -68 c0 -142 -1 -147 -25 -170 -49 -50 -102 -20 -107
60 -3 45 -1 50 20 53 18 3 22 -1 22 -23 0 -33 18 -68 31 -60 5 4 9 66 9 140 0
97 3 135 13 138 36 15 37 10 37 -138z m-4327 98 c11 -7 9 -921 -4 -987 -21
-114 -74 -197 -153 -239 -62 -32 -157 -29 -226 9 -107 58 -135 121 -145 330
-9 173 -9 174 93 174 47 0 83 -5 90 -12 8 -8 12 -50 12 -122 0 -135 16 -179
67 -184 25 -3 35 2 50 24 17 26 18 67 23 519 l5 490 65 6 c61 5 105 2 123 -8z
m3847 -146 c0 -80 -15 -127 -41 -127 -18 0 -49 40 -49 65 0 31 27 34 32 3 2
-12 9 -23 16 -26 9 -3 12 18 12 82 0 70 3 86 15 86 12 0 15 -16 15 -83z
m-2912 2 c-2 -57 -7 -74 -21 -83 -15 -9 -21 -7 -33 8 -16 22 -19 46 -5 46 5 0
11 -9 14 -21 11 -41 27 -7 27 57 0 38 4 64 10 64 7 0 10 -27 8 -71z m3810 -44
c-4 -67 -16 -88 -48 -82 -17 3 -27 67 -11 67 6 0 11 -9 11 -20 0 -11 5 -20 10
-20 6 0 10 28 10 63 0 35 3 67 7 71 16 16 25 -17 21 -79z m-1888 -54 c0 -100
-13 -127 -53 -112 -28 10 -39 81 -13 81 10 0 16 -9 16 -25 0 -14 5 -25 10 -25
6 0 10 35 10 85 0 69 3 85 15 85 12 0 15 -17 15 -89z m81 -101 c-4 -168 -13
-203 -55 -214 -32 -8 -72 8 -85 33 -6 11 -11 42 -11 70 0 48 2 51 25 51 21 0
25 -5 25 -29 0 -39 9 -61 25 -61 21 0 25 25 25 171 l0 140 28 -3 27 -3 -4
-155z m-1401 46 c0 -66 -2 -75 -20 -81 -11 -3 -24 -3 -30 0 -13 8 -13 65 0 65
6 0 10 -9 10 -20 0 -11 5 -20 10 -20 6 0 10 28 10 65 0 37 4 65 10 65 6 0 10
-31 10 -74z m70 -33 c0 -139 -20 -193 -70 -193 -25 0 -60 49 -60 85 0 31 3 35
25 35 22 0 25 -4 25 -36 0 -24 4 -34 13 -32 8 3 13 39 15 121 3 117 3 117 27
117 25 0 25 0 25 -97z m-2170 -16 c0 -95 -16 -133 -53 -121 -28 9 -37 22 -37
57 0 17 5 27 15 27 9 0 15 -9 15 -25 0 -16 6 -25 15 -25 12 0 15 16 15 85 0
69 3 85 15 85 12 0 15 -16 15 -83z m5985 -91 c0 -143 -1 -148 -24 -167 -51
-42 -101 -10 -109 69 -4 50 -4 52 21 52 23 0 26 -5 29 -37 2 -26 8 -38 18 -38
12 0 15 22 18 125 3 141 5 153 29 148 16 -3 18 -18 18 -152z m145 80 c0 -77
-12 -102 -44 -90 -17 7 -23 64 -6 64 6 0 10 -9 10 -20 0 -11 5 -20 10 -20 6 0
10 30 10 70 0 40 4 70 10 70 6 0 10 -31 10 -74z m85 -73 c0 -136 -1 -142 -24
-167 -14 -14 -34 -26 -46 -26 -33 0 -65 36 -66 75 -1 19 -2 41 -3 48 -1 6 10
12 24 12 22 0 25 -5 28 -37 2 -25 8 -38 18 -38 11 0 14 24 14 134 0 137 3 148
40 143 13 -2 15 -26 15 -144z m-305 67 c0 -61 -3 -71 -22 -81 -18 -10 -24 -8
-35 7 -15 20 -18 54 -4 54 5 0 11 -9 14 -20 3 -11 10 -20 16 -20 7 0 11 25 11
65 0 37 4 65 10 65 6 0 10 -30 10 -70z m-1510 -30 c0 -79 -2 -91 -20 -100 -16
-8 -24 -6 -40 10 -22 22 -24 61 -2 68 7 2 12 -6 12 -23 0 -17 5 -25 13 -23 8
3 13 31 15 81 4 108 22 97 22 -13z m2158 -26 c-3 -97 -5 -107 -27 -125 -29
-24 -36 -24 -61 1 -27 27 -28 93 -2 88 10 -2 18 -14 20 -31 2 -15 9 -27 18
-27 11 0 14 20 14 100 0 95 1 100 21 100 20 0 21 -4 17 -106z m-5060 -14 c2
-109 -9 -143 -50 -148 -31 -4 -58 28 -58 70 0 21 5 28 20 28 16 0 20 -7 20
-31 0 -20 4 -29 13 -27 8 3 13 36 15 107 2 90 5 102 20 99 14 -3 17 -18 20
-98z m1832 -19 c0 -67 -4 -93 -15 -105 -16 -15 -44 -11 -57 8 -14 20 -9 66 7
66 9 0 15 -9 15 -25 0 -14 5 -25 10 -25 6 0 10 35 10 85 0 69 3 85 15 85 12 0
15 -17 15 -89z m1970 -23 c0 -60 -4 -86 -16 -99 -16 -18 -42 -15 -56 5 -14 20
-9 66 7 66 9 0 15 -9 15 -25 0 -14 5 -25 10 -25 6 0 10 33 10 80 0 64 3 80 15
80 12 0 15 -16 15 -82z m-3012 -138 c2 -119 -2 -212 -8 -240 -27 -110 -126
-140 -195 -59 -22 27 -25 40 -25 105 l0 74 40 0 40 0 0 -53 c0 -64 19 -98 44
-78 14 12 16 43 16 226 0 116 3 215 7 219 4 4 23 6 43 4 l35 -3 3 -195z
m-1638 61 c0 -50 -4 -74 -16 -85 -8 -9 -19 -16 -23 -16 -15 0 -31 25 -31 47 0
29 16 30 23 2 11 -41 27 -7 27 57 0 36 4 64 10 64 6 0 10 -30 10 -69z m80 -90
c0 -125 -2 -141 -21 -165 -25 -32 -70 -35 -99 -6 -15 15 -20 33 -20 70 0 47 2
50 25 50 22 0 25 -4 25 -39 0 -42 16 -63 31 -40 5 8 9 71 9 142 l0 127 25 0
25 0 0 -139z m3680 30 c0 -91 -11 -121 -45 -121 -23 0 -45 30 -45 61 0 36 27
40 32 4 2 -14 8 -26 13 -25 6 0 11 37 13 85 2 67 6 85 17 85 12 0 15 -18 15
-89z m-2022 -12 c-2 -75 -6 -94 -20 -103 -26 -16 -52 4 -56 43 -2 23 1 31 12
31 10 0 16 -9 16 -25 0 -14 5 -25 10 -25 6 0 10 35 10 85 0 70 3 85 15 85 13
0 15 -15 13 -91z m-2438 12 c0 -76 -16 -105 -45 -81 -17 14 -21 60 -5 60 6 0
10 -9 10 -20 0 -11 5 -20 10 -20 6 0 10 28 10 65 0 37 4 65 10 65 6 0 10 -30
10 -69z m65 -68 c0 -105 -3 -124 -19 -142 -40 -45 -90 -17 -102 57 -6 40 -6
42 20 42 23 0 26 -4 26 -35 0 -24 5 -35 15 -35 13 0 15 20 15 121 0 119 0 120
23 117 21 -3 22 -6 22 -125z m2455 -38 c0 -163 0 -166 -25 -190 -13 -14 -36
-25 -50 -25 -14 0 -37 11 -50 25 -21 20 -25 34 -25 80 0 52 1 55 25 55 22 0
25 -4 25 -39 0 -43 19 -68 38 -49 8 8 12 60 12 160 l0 148 25 0 25 0 0 -165z
m-1202 59 c-2 -70 -6 -89 -20 -98 -26 -16 -52 4 -56 43 -2 23 1 31 12 31 10 0
16 -9 16 -25 0 -28 15 -34 24 -9 3 9 6 45 6 80 0 38 4 64 10 64 7 0 10 -31 8
-86z m81 77 c11 -7 13 -38 9 -161 -6 -172 -17 -202 -78 -208 -53 -5 -80 28
-80 100 0 55 1 58 25 58 22 0 25 -4 25 -33 0 -18 7 -42 15 -53 26 -34 35 3 35
153 0 136 3 149 30 152 3 0 11 -3 19 -8z m1821 -114 c0 -139 -10 -167 -60
-167 -37 0 -60 32 -60 82 0 31 4 38 20 38 14 0 20 -7 20 -22 0 -30 15 -52 29
-44 7 5 11 48 11 122 0 107 1 114 20 114 19 0 20 -7 20 -123z m-2320 46 c0
-38 -4 -74 -9 -81 -19 -31 -71 8 -58 42 9 22 27 11 27 -15 0 -11 5 -17 10 -14
6 3 10 35 10 71 0 36 4 64 10 64 6 0 10 -29 10 -67z m1740 -37 c0 -86 -2 -96
-22 -110 -30 -21 -62 -1 -66 43 -4 37 25 45 30 9 2 -13 8 -22 13 -21 6 2 11
41 13 88 2 67 6 85 17 85 12 0 15 -18 15 -94z m3960 1 c0 -99 -7 -117 -47
-117 -24 0 -43 26 -43 59 0 28 28 27 32 -1 2 -12 9 -23 16 -26 9 -3 12 19 12
87 0 74 3 91 15 91 12 0 15 -17 15 -93z m-1250 -24 c0 -85 -3 -110 -17 -125
-34 -38 -83 -11 -83 48 0 24 5 34 15 34 9 0 15 -9 15 -24 0 -29 19 -44 31 -25
5 8 9 56 9 107 0 75 3 92 15 92 12 0 15 -19 15 -107z m-4950 -16 c0 -123 -5
-137 -52 -137 -32 0 -48 24 -48 69 0 24 4 31 20 31 16 0 20 -7 20 -31 0 -20 4
-29 13 -27 8 3 13 36 15 106 2 82 6 102 17 102 12 0 15 -20 15 -113z m560 7
c0 -114 -9 -144 -42 -144 -33 0 -58 29 -58 67 0 27 4 34 18 31 10 -2 18 -14
20 -31 2 -16 8 -27 15 -24 8 2 13 38 15 105 2 82 6 102 17 102 12 0 15 -20 15
-106z m565 -154 c0 -231 -2 -259 -19 -294 -36 -72 -117 -97 -184 -56 -45 27
-62 74 -62 165 l0 76 48 -3 47 -3 3 -67 c4 -81 23 -106 53 -69 17 21 19 43 19
261 0 264 -4 250 65 247 l30 -2 0 -255z m1793 52 c2 -174 0 -208 -15 -239 -22
-47 -71 -69 -118 -53 -50 17 -69 53 -69 134 l-1 70 35 0 35 1 5 -60 c4 -47 9
-61 22 -63 30 -6 38 41 38 228 0 162 2 179 18 183 47 13 47 14 50 -201z m186
202 c14 -5 16 -49 16 -385 0 -234 -4 -397 -11 -429 -31 -147 -164 -226 -285
-171 -91 41 -120 100 -130 263 -8 144 -6 148 81 148 75 0 75 0 75 -118 0 -105
13 -137 55 -137 53 0 55 12 55 431 0 282 3 383 12 392 12 12 104 17 132 6z
m-2406 -108 c2 -76 -1 -104 -13 -122 -32 -49 -95 -16 -95 48 0 39 37 40 42 1
2 -14 9 -28 16 -31 9 -3 12 22 12 103 0 96 2 106 18 103 15 -3 17 -17 20 -102z
m120 -2 c-3 -97 -6 -108 -27 -125 -28 -23 -32 -23 -55 -6 -24 17 -28 92 -6 92
9 0 17 -12 20 -30 11 -64 25 -27 28 73 3 96 4 102 23 102 20 0 21 -4 17 -106z
m1552 -53 c0 -157 0 -160 -26 -190 -31 -37 -63 -40 -100 -8 -22 19 -28 34 -32
80 l-4 57 31 0 c29 0 31 -2 31 -39 0 -37 19 -68 33 -54 4 3 7 72 7 153 0 81 3
150 7 153 3 4 17 7 30 7 l23 0 0 -159z m310 4 c0 -117 -4 -163 -15 -184 -24
-48 -72 -55 -110 -16 -21 20 -25 34 -25 80 0 52 1 55 25 55 22 0 25 -4 25 -39
0 -21 6 -44 14 -50 27 -22 36 21 36 168 l0 141 25 0 25 0 0 -155z m-72 60 c-4
-67 -16 -88 -48 -82 -17 3 -27 67 -11 67 6 0 11 -9 11 -20 0 -11 5 -20 10 -20
6 0 10 28 10 63 0 35 3 67 7 71 16 16 25 -17 21 -79z m-158 12 c0 -74 -18
-109 -47 -91 -20 12 -31 64 -14 64 6 0 11 -9 11 -19 0 -26 16 -35 24 -15 3 9
6 40 6 70 0 30 5 54 10 54 6 0 10 -28 10 -63z m1687 -92 c3 -163 -3 -188 -48
-214 -22 -12 -31 -12 -57 -2 -35 14 -52 52 -52 112 0 36 2 39 29 39 28 0 30
-2 33 -47 2 -35 7 -48 18 -48 13 0 15 24 18 145 1 80 4 151 7 158 3 7 15 12
27 10 23 -3 23 -6 25 -153z m1713 27 c0 -102 -12 -129 -52 -119 -18 5 -27 16
-32 38 -3 17 -3 35 0 40 10 17 23 9 26 -16 2 -14 8 -26 13 -25 6 0 11 37 13
85 2 67 6 85 17 85 12 0 15 -17 15 -88z m-3340 -58 c0 -137 -13 -173 -64 -174
-34 0 -56 29 -56 77 0 36 3 43 20 43 15 0 20 -7 20 -29 0 -34 18 -51 31 -30 5
8 9 62 9 122 0 100 1 107 20 107 19 0 20 -7 20 -116z m1740 -28 c0 -95 -2
-106 -21 -120 -35 -24 -63 -7 -67 43 -2 31 0 41 12 41 8 0 16 -11 18 -25 2
-14 8 -26 13 -25 6 0 11 40 13 95 2 75 6 95 17 95 12 0 15 -19 15 -104z m480
5 c0 -61 -4 -84 -18 -101 -15 -19 -22 -21 -39 -12 -32 17 -42 82 -13 82 5 0
10 -10 12 -22 2 -12 9 -23 16 -26 9 -3 12 17 12 77 0 65 3 81 15 81 12 0 15
-15 15 -79z m-360 -29 c0 -55 -4 -92 -12 -100 -18 -18 -46 -14 -58 7 -15 29
-12 61 5 61 8 0 15 -9 15 -20 0 -11 5 -20 10 -20 6 0 10 33 10 80 0 64 3 80
15 80 12 0 15 -16 15 -88z m440 -57 c0 -142 -1 -147 -25 -170 -49 -50 -105
-19 -113 63 -4 51 -4 52 22 52 22 0 26 -5 26 -27 0 -35 14 -58 29 -49 7 5 11
52 11 135 0 70 3 131 7 134 3 4 15 7 25 7 17 0 18 -11 18 -145z m-280 50 c0
-63 -3 -76 -19 -85 -23 -12 -51 10 -51 41 0 25 16 25 23 -1 3 -11 10 -20 16
-20 7 0 11 26 11 70 0 40 4 70 10 70 6 0 10 -32 10 -75z m88 -11 c-2 -61 -7
-79 -21 -88 -15 -9 -21 -7 -33 8 -18 26 -18 56 1 56 8 0 15 -9 15 -21 0 -11 5
-17 10 -14 6 3 10 35 10 71 0 38 4 64 10 64 7 0 10 -28 8 -76z m1584 -49 c-2
-60 -8 -115 -14 -122 -16 -20 -55 -15 -72 9 -24 33 -21 78 4 78 16 0 20 -7 20
-31 0 -20 4 -29 13 -27 8 3 13 36 15 107 2 90 5 102 20 99 15 -3 17 -16 14
-113z m-4002 36 c0 -72 -14 -99 -45 -87 -17 6 -21 66 -5 66 6 0 10 -9 10 -20
0 -11 5 -20 10 -20 6 0 10 28 10 65 0 37 4 65 10 65 6 0 10 -30 10 -69z
m-2532 -72 c-3 -96 -6 -113 -22 -125 -40 -29 -74 -7 -78 51 -2 30 1 40 14 43
12 2 17 -5 20 -30 2 -18 8 -33 13 -33 6 0 11 43 13 103 3 95 4 102 23 102 20
0 21 -5 17 -111z m632 47 c0 -62 -14 -96 -40 -96 -12 0 -30 34 -30 54 0 23 17
19 23 -5 11 -40 27 -8 27 52 0 33 4 59 10 59 6 0 10 -28 10 -64z m4632 -201
c-4 -273 -10 -296 -76 -329 -32 -16 -44 -17 -75 -7 -20 6 -48 22 -62 37 -21
22 -24 37 -28 115 l-3 90 43 -3 44 -3 5 -67 c6 -74 13 -87 38 -72 15 10 17 37
20 235 1 123 4 230 7 237 3 9 19 12 47 10 l43 -3 -3 -240z m-3179 98 c-6 -88
-9 -95 -35 -91 -18 2 -24 11 -26 36 -2 18 1 32 7 32 6 0 11 -9 11 -20 0 -11 5
-20 10 -20 6 0 10 28 10 65 0 49 3 65 14 65 11 0 13 -14 9 -67z m58 -133 c-3
-134 -13 -160 -56 -160 -37 0 -56 22 -58 70 -2 39 1 45 18 45 15 0 21 -8 25
-33 3 -18 10 -33 15 -32 6 0 11 49 13 121 3 118 3 120 25 117 22 -3 22 -5 18
-128z m2229 59 c0 -68 -12 -99 -39 -99 -19 0 -31 18 -31 46 0 22 17 17 23 -7
11 -41 27 -7 27 57 0 36 4 64 10 64 6 0 10 -27 10 -61z m78 -113 c-3 -160 -13
-186 -70 -186 -44 0 -68 31 -68 90 0 47 2 50 25 50 22 0 25 -4 25 -39 0 -42
16 -63 31 -40 5 8 9 71 9 142 l0 127 26 0 25 0 -3 -144z m-3828 18 c0 -111 -9
-134 -50 -134 -34 0 -53 27 -48 68 4 36 32 36 36 -1 2 -16 8 -27 15 -24 8 2
13 36 15 95 2 73 6 92 17 92 12 0 15 -18 15 -96z m5868 -20 c-2 -79 -6 -99
-20 -108 -26 -16 -52 4 -56 43 -2 23 1 31 12 31 10 0 16 -9 16 -25 0 -14 5
-25 10 -25 6 0 10 34 10 83 0 46 3 87 7 90 19 19 23 -2 21 -89z m-560 -32 c3
-116 -5 -142 -46 -142 -38 0 -52 17 -52 62 0 45 27 54 32 11 2 -14 9 -28 16
-31 9 -3 12 21 12 96 0 54 3 102 7 106 20 19 28 -8 31 -102z m-2658 24 c0 -35
-3 -71 -6 -80 -6 -16 -54 -23 -54 -8 0 4 -3 17 -6 30 -5 16 -2 22 10 22 9 0
16 -8 16 -20 0 -11 5 -20 10 -20 6 0 10 30 10 70 0 40 4 70 10 70 6 0 10 -28
10 -64z m-3208 -51 c-4 -123 -7 -133 -39 -141 -35 -9 -65 26 -61 70 4 41 31
41 38 1 11 -64 25 -27 28 73 2 91 5 103 20 100 15 -3 17 -15 14 -103z m5948
-85 c0 -185 -6 -212 -52 -236 -33 -17 -63 -11 -95 19 -19 17 -23 31 -23 84 l0
63 30 0 c29 0 30 -2 30 -42 0 -24 5 -50 10 -58 9 -13 12 -12 25 4 12 16 15 54
15 178 l0 158 30 0 30 0 0 -170z m300 43 c0 -85 -3 -110 -17 -125 -34 -38 -83
-11 -83 48 0 24 5 34 15 34 9 0 15 -9 15 -24 0 -29 19 -44 31 -25 5 8 9 56 9
107 0 75 3 92 15 92 12 0 15 -19 15 -107z m-4990 -14 c0 -44 -5 -89 -10 -100
-12 -21 -40 -25 -58 -7 -18 18 -15 68 3 68 8 0 15 -9 15 -20 0 -11 5 -20 10
-20 6 0 10 33 10 80 0 64 3 80 15 80 12 0 15 -16 15 -81z m5068 -105 l-3 -186
-28 -24 c-36 -31 -68 -30 -106 2 -29 24 -31 31 -31 90 l0 64 30 0 c29 0 30 -1
30 -49 0 -53 12 -70 35 -51 12 10 15 45 15 176 l0 164 31 0 30 0 -3 -186z
m-6078 71 c0 -91 -3 -108 -20 -125 -35 -35 -80 -6 -80 51 0 46 27 56 32 12 2
-14 9 -28 16 -31 9 -3 12 21 12 97 0 94 1 101 20 101 19 0 20 -7 20 -105z
m5858 -207 c-3 -301 -4 -315 -25 -354 -42 -79 -116 -102 -200 -65 -55 26 -79
72 -88 178 -10 116 -6 125 58 121 l52 -3 5 -82 c3 -56 10 -87 21 -98 18 -18
44 -12 55 13 5 9 10 149 12 310 l3 292 55 0 55 0 -3 -312z m-5760 152 c4 -179
-3 -240 -31 -282 -19 -27 -30 -34 -65 -36 -36 -3 -47 1 -72 27 -28 27 -30 35
-30 101 l0 71 33 -3 c31 -3 32 -5 35 -53 4 -58 18 -81 38 -64 11 9 14 53 14
201 l0 189 38 -3 37 -3 3 -145z m992 11 c0 -125 -2 -141 -21 -165 -43 -55
-106 -22 -111 59 -3 45 -1 50 20 53 18 3 22 -1 22 -23 0 -33 18 -68 31 -60 5
4 9 67 9 141 l0 134 25 0 25 0 0 -139z m-1230 -21 c0 -136 -1 -142 -25 -165
-49 -50 -102 -20 -112 63 -6 51 -5 52 21 52 23 0 26 -4 26 -34 0 -33 20 -62
33 -49 4 3 7 66 7 140 l0 133 25 0 25 0 0 -140z m428 -210 c4 -321 -1 -359
-57 -422 -38 -42 -40 -43 -99 -43 -65 0 -97 16 -136 69 -17 22 -21 46 -24 137
l-4 109 55 0 c64 0 67 -5 67 -107 0 -70 18 -100 50 -83 9 5 20 17 24 26 3 8 6
146 6 305 l0 290 58 -3 57 -3 3 -275z m1482 206 c0 -81 -15 -111 -45 -86 -17
14 -21 60 -5 60 6 0 10 -9 10 -20 0 -11 5 -20 10 -20 6 0 10 30 10 70 0 40 4
70 10 70 6 0 10 -31 10 -74z m61 -86 c-3 -134 -13 -160 -56 -160 -36 0 -55 22
-61 73 -7 47 -6 49 17 45 18 -2 25 -11 29 -36 3 -18 10 -33 15 -32 6 0 11 49
13 121 3 118 3 120 25 117 22 -3 22 -5 18 -128z m2309 -14 c0 -110 -9 -136
-49 -136 -25 0 -41 21 -48 64 -5 32 -3 36 16 36 17 0 21 -6 21 -31 0 -20 4
-29 13 -27 8 3 13 35 15 101 2 77 6 97 17 97 12 0 15 -19 15 -104z m608 -17
c-2 -57 -7 -74 -21 -83 -15 -9 -21 -7 -33 8 -18 26 -18 56 1 56 8 0 15 -9 15
-20 0 -11 5 -20 10 -20 6 0 10 28 10 65 0 38 4 65 10 65 7 0 10 -27 8 -71z
m132 -54 c0 -92 -3 -108 -20 -125 -24 -24 -38 -25 -62 -3 -22 20 -24 78 -3 87
11 4 15 -1 15 -17 0 -12 5 -29 10 -37 19 -28 30 11 30 108 0 75 3 92 15 92 12
0 15 -18 15 -105z m-2140 -28 c0 -36 -6 -71 -13 -81 -19 -26 -51 -17 -55 17
-4 33 13 36 22 5 10 -39 26 0 26 65 0 31 5 57 10 57 6 0 10 -28 10 -63z m58
-82 c4 -126 -3 -161 -33 -181 -21 -13 -28 -14 -52 -2 -25 12 -28 19 -31 66 -3
46 -1 52 17 52 16 0 20 -8 23 -37 2 -21 8 -38 13 -38 6 0 11 45 13 110 3 126
5 138 29 133 16 -3 18 -17 21 -103z m-2930 -7 c2 -35 -2 -77 -7 -92 -20 -51
-62 -43 -76 17 -6 21 -4 27 8 27 9 0 17 -9 19 -20 2 -12 8 -22 13 -23 6 -1 11
32 13 81 2 60 6 82 15 79 7 -2 13 -29 15 -69z m3064 -43 c-4 -123 -7 -133 -38
-141 -37 -9 -64 20 -64 68 0 32 3 39 17 36 11 -2 20 -15 23 -33 11 -64 25 -27
28 73 2 91 5 103 20 100 15 -3 17 -15 14 -103z m98 -112 c0 -190 -2 -211 -20
-241 -27 -43 -60 -58 -107 -46 -54 14 -77 51 -81 134 l-4 70 41 0 41 0 0 -52
c0 -59 11 -84 33 -75 22 8 27 54 27 243 l0 174 35 0 35 0 0 -207z m1050 105
c0 -72 -14 -118 -37 -125 -18 -6 -55 36 -51 59 5 32 28 35 28 3 0 -17 5 -25
13 -23 8 3 13 31 15 81 2 59 6 77 17 77 12 0 15 -16 15 -72z m80 -78 c0 -167
-9 -203 -57 -221 -35 -13 -77 4 -92 37 -6 14 -11 45 -11 69 0 43 1 45 30 45
29 0 30 -2 30 -46 0 -38 3 -45 18 -42 15 3 17 20 20 156 l3 152 29 0 30 0 0
-150z m1840 50 c0 -87 -3 -103 -20 -120 -38 -38 -80 -14 -80 46 0 43 25 46 34
4 3 -16 10 -30 16 -30 6 0 10 36 10 93 0 95 3 107 27 107 10 0 13 -23 13 -100z
m-2840 -13 c0 -113 -13 -147 -54 -147 -30 0 -45 19 -53 64 -5 32 -3 36 15 36
15 0 22 -7 24 -25 2 -14 8 -27 13 -28 6 -1 11 39 13 101 2 94 4 102 22 102 19
0 20 -7 20 -103z m-1410 -11 c0 -111 -9 -143 -45 -152 -36 -9 -57 14 -59 62
-1 29 3 39 16 42 12 2 17 -5 20 -30 2 -18 8 -33 13 -33 6 0 11 43 13 103 2 94
4 102 22 102 18 0 20 -7 20 -94z m-1822 -19 c3 -112 -6 -137 -48 -137 -34 0
-50 23 -50 69 0 41 26 41 34 0 3 -18 11 -29 18 -27 9 3 14 35 16 102 2 71 6
96 15 93 8 -2 13 -36 15 -100z m1906 97 c14 -5 16 -30 16 -174 0 -92 -3 -181
-6 -199 -10 -50 -46 -81 -94 -81 -60 0 -85 29 -94 108 -4 34 -4 67 -1 72 7 12
64 14 66 3 1 -5 3 -28 4 -52 4 -55 21 -74 41 -47 11 15 14 58 14 192 0 169 2
180 32 183 3 1 13 -2 22 -5z m-1424 -188 c0 -93 -11 -126 -43 -126 -31 0 -47
18 -47 52 0 18 5 28 15 28 9 0 15 -10 15 -26 0 -16 5 -24 13 -22 8 3 13 32 15
86 2 64 6 82 17 82 12 0 15 -16 15 -74z m5120 -85 c0 -119 -9 -141 -55 -141
-28 0 -45 26 -45 69 0 41 25 41 34 1 3 -16 10 -30 16 -30 6 0 10 38 10 98 0
100 3 112 27 112 10 0 13 -25 13 -109z m-2730 18 c0 -44 -5 -89 -10 -100 -12
-21 -40 -25 -58 -7 -18 18 -15 68 3 68 9 0 15 -10 15 -26 0 -14 4 -23 10 -19
6 3 10 42 10 86 0 64 3 79 15 79 12 0 15 -16 15 -81z m-1180 -40 c0 -68 -12
-99 -39 -99 -19 0 -31 18 -31 46 0 22 17 16 24 -8 10 -39 26 0 26 65 0 31 5
57 10 57 6 0 10 -27 10 -61z m4270 -38 c0 -76 -16 -105 -45 -81 -17 14 -21 60
-5 60 6 0 10 -9 10 -20 0 -11 5 -20 10 -20 6 0 10 28 10 65 0 37 4 65 10 65 6
0 10 -30 10 -69z m-1630 -35 c0 -94 -11 -126 -44 -126 -27 0 -46 25 -46 59 0
12 7 21 15 21 9 0 15 -10 15 -26 0 -16 5 -24 13 -22 8 3 13 32 15 86 2 64 6
82 17 82 12 0 15 -16 15 -74z m1540 -72 c0 -119 -8 -144 -48 -144 -38 0 -52
17 -52 62 0 45 27 54 32 11 2 -14 9 -28 16 -31 9 -3 12 21 12 96 0 100 3 112
27 112 10 0 13 -24 13 -106z m-5386 90 c13 -5 16 -22 15 -88 0 -95 -12 -173
-27 -188 -19 -19 -65 -12 -84 12 -26 32 -21 95 7 95 15 0 21 -8 25 -33 3 -18
10 -33 15 -32 6 0 11 49 13 120 3 118 5 126 36 114z m124 -239 c3 -254 -2
-290 -49 -329 -36 -30 -76 -33 -125 -10 -49 24 -64 59 -64 154 l0 80 34 0 c43
0 50 -11 52 -79 2 -62 23 -93 48 -71 14 11 16 47 16 246 l0 233 23 4 c12 3 31
4 42 3 19 -1 20 -9 23 -231z m5142 80 c0 -117 -4 -163 -15 -184 -24 -47 -68
-54 -110 -18 -20 17 -27 34 -32 80 l-6 57 32 0 c29 0 31 -2 31 -39 0 -37 19
-68 33 -54 4 3 7 72 7 153 0 81 3 150 7 153 3 4 17 7 30 7 l23 0 0 -155z
m-5592 39 c-2 -79 -6 -99 -20 -108 -26 -16 -52 4 -56 43 -2 23 1 31 12 31 10
0 16 -9 16 -25 0 -14 5 -25 10 -25 6 0 10 34 10 83 0 46 3 87 7 90 19 19 23
-2 21 -89z m5510 20 c-2 -60 -7 -79 -20 -88 -11 -7 -21 -7 -27 -1 -15 16 -17
58 -3 62 7 3 12 -4 12 -16 0 -12 5 -21 10 -21 6 0 10 30 10 70 0 42 4 70 10
70 7 0 10 -28 8 -76z m-1258 -41 c0 -85 -3 -110 -17 -125 -35 -39 -83 -5 -83
60 0 26 4 33 17 30 11 -2 20 -15 23 -33 11 -64 25 -27 28 73 2 82 6 102 17
102 12 0 15 -20 15 -107z m-2920 26 c0 -33 -5 -69 -10 -80 -13 -23 -46 -25
-54 -3 -9 24 -7 54 4 54 6 0 10 -9 10 -20 0 -11 5 -20 10 -20 6 0 10 28 10 63
0 35 3 67 6 70 15 15 24 -8 24 -64z m-1240 -8 c0 -76 -16 -105 -45 -81 -17 14
-21 60 -5 60 6 0 10 -9 10 -20 0 -11 5 -20 10 -20 6 0 10 28 10 65 0 37 4 65
10 65 6 0 10 -30 10 -69z m88 -26 c6 -171 -14 -237 -71 -237 -45 0 -67 28 -67
84 0 45 2 49 23 46 18 -2 23 -10 25 -40 4 -42 26 -52 36 -15 3 12 6 75 6 140
0 117 0 118 23 115 21 -3 22 -8 25 -93z m380 -11 c-2 -79 -6 -99 -20 -108 -28
-17 -52 4 -56 49 -2 27 0 36 10 33 7 -3 14 -17 16 -31 2 -15 8 -27 13 -27 5 0
9 38 9 83 0 46 3 87 7 90 19 19 23 -2 21 -89z m852 -31 c0 -154 -14 -196 -67
-201 -48 -5 -73 25 -73 89 0 47 2 50 23 47 17 -2 23 -11 25 -38 2 -19 8 -39
13 -45 20 -20 29 23 29 148 l0 127 25 0 25 0 0 -127z m3890 2 c0 -112 -2 -127
-20 -145 -11 -11 -26 -20 -34 -20 -29 0 -57 35 -63 78 -5 40 -4 42 21 42 23 0
26 -4 26 -36 0 -24 4 -34 13 -32 8 3 13 39 15 121 2 109 4 117 22 117 19 0 20
-7 20 -125z m-3775 -145 c0 -249 -1 -256 -23 -296 -41 -71 -99 -90 -169 -57
-52 24 -75 82 -71 175 l3 73 33 3 c50 5 62 -11 62 -83 0 -76 17 -98 49 -66 20
20 21 32 21 267 l0 245 48 -3 47 -3 0 -255z m2393 183 c-3 -76 -4 -78 -28 -78
-20 0 -26 6 -28 28 -2 15 1 27 7 27 6 0 11 -9 11 -20 0 -11 5 -20 10 -20 6 0
10 30 10 70 0 42 4 70 10 70 7 0 10 -29 8 -77z m1487 -143 c0 -177 -2 -209
-18 -237 -21 -40 -45 -53 -92 -53 -55 0 -91 41 -100 112 -10 82 -6 92 38 96
l37 3 0 -50 c0 -58 7 -81 26 -81 28 0 34 41 34 223 0 101 3 187 7 191 4 4 21
6 38 4 l30 -3 0 -205z m-4165 125 c0 -44 -5 -68 -16 -79 -19 -19 -26 -20 -42
-4 -15 15 -16 58 -2 58 6 0 10 -9 10 -20 0 -11 5 -20 10 -20 6 0 10 28 10 63
0 35 3 67 6 70 16 15 24 -9 24 -68z m-600 -104 c0 -145 -2 -161 -21 -185 -26
-33 -73 -35 -106 -4 -19 17 -23 32 -23 78 0 52 2 56 25 58 22 2 25 -2 25 -32
0 -43 9 -66 25 -66 20 0 25 35 25 178 l0 132 25 0 25 0 0 -159z m280 26 c0
-77 -4 -108 -16 -125 -30 -43 -78 -21 -88 41 -6 32 -4 37 13 37 14 0 21 -8 23
-27 2 -14 9 -28 16 -31 9 -3 12 22 12 102 0 99 1 106 20 106 19 0 20 -7 20
-103z m3080 -38 c0 -77 -5 -149 -10 -159 -17 -32 -48 -43 -81 -30 -30 13 -40
34 -42 92 -2 27 2 34 21 36 18 3 22 -1 22 -21 0 -36 10 -57 26 -57 11 0 14 26
14 134 0 98 3 136 13 139 35 15 37 9 37 -134z m-2256 115 c7 -19 6 -318 -3
-659 l-6 -251 -33 -66 c-34 -69 -73 -106 -131 -126 -118 -41 -260 36 -290 157
-12 48 -23 255 -15 286 6 24 9 25 84 25 62 0 79 -3 84 -16 3 -9 6 -57 6 -107
0 -68 5 -101 18 -127 30 -61 85 -47 102 25 5 22 10 225 10 451 0 226 3 414 7
417 3 4 41 7 84 7 61 0 78 -3 83 -16z m-724 -176 c0 -154 -3 -189 -18 -218
-23 -47 -62 -65 -106 -50 -50 16 -66 47 -66 125 l0 66 33 -3 c31 -3 32 -5 35
-53 4 -58 14 -74 37 -55 12 10 15 42 15 191 l0 179 35 0 35 0 0 -182z m-234
125 c4 -14 4 -137 1 -273 -6 -271 -11 -296 -66 -343 -59 -50 -156 -32 -197 37
-14 24 -19 51 -19 121 l0 90 48 3 c50 3 54 -1 48 -66 -1 -12 3 -40 9 -62 8
-29 16 -40 30 -40 36 0 40 31 40 293 0 139 3 257 7 260 3 4 26 7 49 7 39 0 44
-3 50 -27z m3342 -188 c3 -241 -6 -307 -50 -352 -25 -26 -40 -33 -70 -33 -91
0 -128 48 -128 165 l0 75 45 0 45 0 0 -58 c0 -69 18 -104 44 -83 14 12 16 44
16 241 0 124 3 230 7 234 4 4 25 6 48 4 l40 -3 3 -190z m372 66 c0 -105 -2
-121 -21 -145 -23 -30 -45 -33 -77 -10 -17 12 -22 25 -22 60 0 37 3 44 19 44
15 0 21 -8 23 -32 2 -17 8 -33 14 -35 17 -6 24 32 24 140 0 90 1 97 20 97 19
0 20 -7 20 -119z m100 -111 c0 -216 -7 -253 -51 -284 -26 -18 -81 -21 -110 -6
-32 18 -49 64 -49 135 l0 65 35 0 c36 0 40 -7 36 -56 -4 -53 37 -98 53 -58 3
9 6 100 6 203 0 103 3 191 7 194 3 4 21 7 40 7 l33 0 0 -200z m280 116 c0 -90
-14 -121 -48 -109 -24 9 -32 23 -32 56 0 34 23 32 28 -1 2 -12 8 -22 13 -22 5
0 9 36 9 80 0 64 3 80 15 80 12 0 15 -16 15 -84z m85 -83 c0 -133 -2 -144 -22
-164 -26 -26 -67 -28 -93 -4 -15 13 -20 31 -20 67 0 45 2 48 25 48 23 0 25 -4
25 -40 0 -28 4 -40 14 -40 22 0 26 24 26 157 0 123 0 124 23 121 22 -3 22 -5
22 -145z m110 134 c17 -13 18 -29 13 -259 -5 -204 -9 -252 -23 -282 -24 -51
-60 -76 -107 -76 -92 0 -137 62 -138 188 l0 73 48 -3 47 -3 5 -69 c4 -51 10
-72 22 -80 38 -24 43 2 46 264 3 224 5 249 20 253 32 9 48 7 67 -6z m-3880
-357 l0 -355 -28 -57 c-33 -67 -72 -99 -132 -105 -75 -9 -149 28 -182 90 -17
34 -36 214 -26 255 5 21 10 23 67 20 l61 -3 5 -91 c5 -97 19 -127 54 -122 42
6 46 34 46 384 0 182 3 334 7 338 4 4 34 6 68 4 l60 -3 0 -355z m3144 317 c8
-10 9 -134 3 -448 -7 -421 -8 -435 -30 -484 -61 -134 -179 -180 -303 -118 -97
50 -134 149 -127 345 l3 83 80 0 80 0 5 -116 c4 -96 8 -121 24 -138 26 -28 50
-26 75 5 20 26 21 37 21 443 0 311 3 420 12 429 17 17 142 16 157 -1z m405 -3
c14 -5 16 -44 16 -328 0 -184 -4 -336 -10 -357 -35 -126 -146 -181 -250 -126
-70 37 -90 85 -90 219 l0 108 60 0 c67 0 62 8 64 -100 1 -36 7 -75 14 -87 16
-29 46 -29 66 -1 14 19 16 69 16 344 0 176 3 324 7 327 8 9 86 9 107 1z m436
-107 c0 -69 -15 -101 -46 -96 -13 3 -20 14 -22 37 -2 18 1 32 7 32 6 0 11 -9
11 -19 0 -11 5 -23 10 -26 6 -4 10 20 10 64 0 56 3 71 15 71 12 0 15 -14 15
-63z m310 -52 c0 -63 -3 -76 -19 -85 -23 -12 -51 10 -51 41 0 25 16 25 23 -1
3 -11 10 -20 16 -20 7 0 11 26 11 70 0 40 4 70 10 70 6 0 10 -32 10 -75z
m-3610 -74 c0 -119 -9 -141 -55 -141 -28 0 -45 26 -45 69 0 41 25 41 34 1 3
-16 10 -30 16 -30 6 0 10 38 10 98 0 100 3 112 27 112 10 0 13 -25 13 -109z
m1970 -54 c0 -137 -10 -167 -57 -167 -41 0 -63 27 -63 77 0 36 3 43 20 43 15
0 20 -7 20 -29 0 -34 18 -51 31 -30 5 8 9 62 9 122 0 100 1 107 20 107 19 0
20 -7 20 -123z m1370 -71 c0 -111 -9 -143 -45 -152 -34 -8 -54 11 -62 59 -5
33 -3 37 15 37 15 0 22 -7 24 -25 2 -14 8 -27 13 -28 6 -1 11 39 13 101 2 94
4 102 22 102 18 0 20 -7 20 -94z m-4750 -26 c0 -87 -3 -103 -20 -120 -24 -24
-29 -24 -58 -4 -29 20 -32 87 -4 82 10 -2 18 -14 20 -31 2 -15 8 -27 13 -27 5
0 9 45 9 100 0 93 1 100 20 100 19 0 20 -7 20 -100z m4840 36 c0 -35 -3 -71
-6 -80 -6 -16 -54 -23 -54 -8 0 4 -3 17 -6 30 -5 16 -2 22 10 22 9 0 16 -8 16
-20 0 -11 5 -20 10 -20 6 0 10 30 10 70 0 40 4 70 10 70 6 0 10 -28 10 -64z
m-3430 -148 c0 -107 -11 -138 -51 -138 -24 0 -49 37 -49 72 0 21 5 28 20 28
16 0 20 -7 20 -30 0 -32 14 -40 24 -14 3 9 6 54 6 100 0 68 3 84 15 84 12 0
15 -18 15 -102z m80 -83 c0 -220 -9 -245 -91 -245 -18 0 -39 10 -54 25 -21 20
-25 34 -25 85 l0 60 30 0 c29 0 30 -2 30 -45 0 -33 5 -47 16 -52 28 -11 34 19
34 179 0 162 1 165 43 167 16 1 17 -14 17 -174z m-410 84 c0 -92 -10 -119 -45
-119 -26 0 -45 25 -45 59 0 27 28 27 32 1 2 -12 8 -22 13 -23 6 -1 11 32 13
81 2 64 6 82 17 82 12 0 15 -17 15 -81z m2040 -30 c0 -68 -12 -99 -39 -99 -19
0 -31 18 -31 46 0 22 17 16 24 -8 10 -39 26 0 26 65 0 31 5 57 10 57 6 0 10
-27 10 -61z m78 -54 c2 -60 0 -134 -3 -164 -11 -92 -77 -130 -130 -76 -21 20
-25 34 -25 80 0 52 1 55 25 55 22 0 25 -4 25 -33 0 -18 7 -42 15 -53 26 -34
35 3 35 152 0 77 3 144 7 148 4 4 16 6 28 4 19 -3 20 -11 23 -113z m-1550
-245 l2 -304 -25 -51 c-27 -56 -81 -95 -131 -95 -52 1 -111 35 -132 77 -21 42
-38 209 -24 231 6 9 26 12 58 10 l49 -3 5 -80 c6 -88 12 -105 39 -105 43 0 46
18 49 326 3 292 3 293 25 297 12 3 36 4 52 3 l30 -1 3 -305z m1704 -10 c-3
-289 -5 -307 -25 -350 -57 -117 -207 -122 -265 -9 -20 38 -22 56 -20 139 l3
95 50 0 50 0 5 -83 c6 -92 23 -122 58 -103 10 6 22 25 26 42 3 17 6 155 6 306
l0 274 58 -3 57 -3 -3 -305z m-3012 183 c0 -111 -12 -146 -51 -151 -31 -4 -48
15 -56 62 -5 32 -3 36 15 36 15 0 22 -7 24 -25 2 -14 8 -27 13 -28 6 -1 11 39
13 101 2 94 4 102 22 102 19 0 20 -7 20 -97z m2685 5 c0 -108 -26 -146 -69
-102 -21 20 -21 74 -1 74 9 0 15 -9 15 -24 0 -30 15 -42 24 -20 3 9 6 49 6 91
0 55 3 74 13 70 8 -3 12 -30 12 -89z m-1277 5 c-3 -77 -3 -78 -30 -81 -20 -2
-28 1 -28 12 0 8 -3 21 -6 30 -4 11 -1 16 10 16 9 0 16 -8 16 -20 0 -11 5 -20
10 -20 6 0 10 30 10 70 0 42 4 70 10 70 7 0 10 -29 8 -77z m-1538 0 c0 -47 -5
-72 -16 -84 -22 -24 -54 -8 -54 26 0 31 15 32 26 3 6 -17 9 -2 11 50 3 55 7
72 18 72 12 0 15 -15 15 -67z m3470 -26 c0 -36 -6 -71 -13 -81 -19 -26 -51
-17 -55 17 -4 33 13 36 22 5 10 -39 26 0 26 65 0 31 5 57 10 57 6 0 10 -28 10
-63z m730 -40 c0 -68 -4 -109 -12 -119 -36 -44 -88 -19 -88 43 0 46 27 56 32
12 2 -17 9 -28 18 -28 12 0 16 19 18 98 2 77 6 97 17 97 12 0 15 -19 15 -103z
m-2600 -30 c0 -135 -11 -167 -56 -167 -37 0 -64 33 -64 80 0 33 3 40 20 40 14
0 20 -7 20 -22 0 -30 15 -52 29 -44 7 5 11 48 11 122 0 107 1 114 20 114 19 0
20 -7 20 -123z m2695 41 c-4 -40 -11 -77 -15 -81 -16 -18 -45 -2 -48 26 -4 33
12 36 24 5 6 -17 9 -2 11 50 3 57 7 72 19 72 14 0 15 -11 9 -72z m-2595 -185
c0 -190 -2 -211 -20 -241 -27 -43 -60 -58 -107 -46 -54 14 -77 51 -81 134 l-4
70 41 0 41 0 0 -52 c0 -60 10 -81 32 -73 25 10 28 36 28 233 l0 182 35 0 35 0
0 -207z m800 79 c0 -72 -4 -103 -16 -120 -31 -44 -84 -17 -84 44 0 42 27 48
32 7 2 -14 9 -28 16 -31 9 -3 12 20 12 91 0 95 3 107 27 107 10 0 13 -23 13
-98z m-360 -15 c0 -88 -15 -127 -49 -127 -26 0 -41 20 -41 57 0 40 27 46 32 8
2 -14 8 -27 13 -28 6 -1 11 31 13 78 3 89 7 109 22 100 5 -3 10 -43 10 -88z
m435 -94 c0 -178 0 -182 -24 -207 -17 -18 -35 -26 -58 -26 -49 0 -78 34 -87
98 -8 63 -4 72 34 72 27 0 29 -3 32 -47 2 -35 8 -49 19 -51 24 -4 29 26 29
190 0 150 3 160 40 155 13 -2 15 -30 15 -184z m-351 130 c0 -13 -1 -85 -2
-162 -2 -132 -3 -139 -27 -165 -30 -33 -68 -34 -100 -1 -21 20 -25 34 -25 80
0 52 1 55 25 55 22 0 25 -4 25 -38 0 -44 17 -67 37 -51 10 9 13 48 13 154 0
78 3 145 7 149 16 15 48 1 47 -21z m496 -270 c0 -166 -4 -293 -11 -316 -6 -22
-25 -55 -43 -74 -60 -66 -170 -53 -218 25 -18 30 -23 55 -26 135 l-4 98 53 -3
54 -3 5 -75 c3 -41 9 -81 13 -87 12 -19 45 -15 57 6 6 12 10 124 10 295 l0
276 55 0 55 0 0 -277z m-365 -28 c0 -274 -1 -292 -21 -329 -30 -58 -66 -81
-124 -81 -56 0 -94 23 -124 75 -15 26 -20 53 -20 124 l-1 91 50 0 50 0 5 -75
c6 -84 13 -100 40 -100 36 0 40 31 40 308 0 148 3 272 7 276 4 4 28 6 53 4
l45 -3 0 -290z m-350 -15 l0 -285 -25 -45 c-36 -63 -83 -93 -139 -87 -93 10
-130 65 -134 198 l-2 94 53 3 52 3 1 -58 c1 -73 10 -103 32 -117 15 -9 21 -7
33 8 11 16 14 71 14 291 0 150 3 275 7 279 4 4 30 6 58 4 l50 -3 0 -285z
m-1435 147 c0 -139 -10 -167 -60 -167 -37 0 -60 32 -60 82 0 31 4 38 20 38 15
0 20 -7 20 -29 0 -29 21 -57 33 -44 4 3 7 60 7 125 0 111 1 118 20 118 19 0
20 -7 20 -123z m3230 14 c0 -154 -19 -193 -85 -177 -25 6 -32 20 -37 76 -3 30
0 35 19 38 19 3 22 -2 25 -35 2 -21 8 -37 13 -36 6 2 11 54 13 123 l3 120 24
0 25 0 0 -109z m-2010 35 c0 -45 -5 -69 -16 -80 -19 -19 -26 -20 -42 -4 -15
15 -16 58 -2 58 6 0 10 -9 10 -21 0 -12 5 -19 13 -17 7 3 13 28 15 66 4 82 22
80 22 -2z m78 -80 c-3 -125 -6 -147 -22 -165 -24 -27 -66 -27 -94 -1 -17 16
-22 32 -22 70 0 47 2 50 25 50 23 0 25 -4 25 -41 0 -33 3 -40 18 -37 15 3 17
19 20 136 l3 132 25 0 25 0 -3 -144z m-1448 35 c0 -61 -4 -84 -18 -101 -16
-19 -22 -21 -40 -11 -16 9 -22 21 -22 46 0 38 17 48 22 13 2 -12 9 -23 16 -26
9 -3 12 17 12 77 0 65 3 81 15 81 12 0 15 -15 15 -79z m3510 -5 c0 -65 -4 -88
-16 -101 -14 -14 -19 -14 -38 -2 -26 18 -35 77 -12 77 10 0 16 -9 16 -25 0
-28 15 -34 24 -9 3 9 6 45 6 80 0 36 4 64 10 64 6 0 10 -35 10 -84z m-3260
-24 c0 -79 -17 -114 -47 -96 -10 6 -19 23 -21 38 -4 31 13 35 21 5 11 -41 27
-7 27 57 0 36 4 64 10 64 6 0 10 -29 10 -68z m410 -151 c0 -145 -2 -161 -21
-185 -25 -32 -79 -36 -107 -8 -19 19 -37 106 -26 123 3 5 16 9 30 9 20 0 24
-5 24 -29 0 -39 9 -61 25 -61 20 0 25 35 25 178 l0 132 25 0 25 0 0 -159z
m-330 45 c0 -110 -9 -136 -49 -136 -25 0 -41 21 -48 64 -5 32 -3 36 16 36 17
0 21 -6 21 -31 0 -20 4 -29 13 -27 8 3 13 35 15 101 2 77 6 97 17 97 12 0 15
-19 15 -104z m159 -30 c-3 -105 -7 -127 -23 -145 -42 -46 -95 -18 -103 53 -6
46 -5 48 18 44 18 -2 25 -11 29 -36 3 -18 10 -33 15 -32 6 0 11 49 13 120 l3
120 25 0 26 0 -3 -124z m94 57 c-6 -88 -9 -95 -35 -91 -18 2 -24 11 -26 36 -2
18 1 32 7 32 6 0 11 -9 11 -20 0 -11 5 -20 10 -20 6 0 10 28 10 65 0 49 3 65
14 65 11 0 13 -14 9 -67z m2277 -138 c0 -112 -2 -127 -20 -145 -45 -45 -100
-13 -100 57 0 36 3 43 19 43 15 0 21 -8 23 -32 2 -21 8 -33 18 -33 12 0 16 21
18 118 2 109 4 117 22 117 19 0 20 -7 20 -125z m120 -6 c0 -92 -10 -119 -45
-119 -26 0 -45 25 -45 59 0 12 7 21 15 21 9 0 15 -10 15 -26 0 -16 5 -24 13
-22 8 3 13 32 15 86 2 64 6 82 17 82 12 0 15 -17 15 -81z m-1730 -121 c0 -134
-12 -185 -46 -200 -49 -23 -94 21 -94 93 0 24 4 29 25 29 22 0 25 -4 25 -33 0
-40 8 -51 27 -36 9 9 13 44 13 135 l0 124 25 0 25 0 0 -112z m-510 8 c0 -35
-3 -71 -6 -80 -8 -22 -41 -20 -54 3 -14 27 -13 41 5 41 8 0 15 -9 15 -21 0
-11 5 -17 10 -14 6 3 10 35 10 71 0 36 4 64 10 64 6 0 10 -28 10 -64z m350
-38 c0 -107 -11 -138 -51 -138 -24 0 -49 37 -49 72 0 21 5 28 20 28 16 0 20
-7 20 -30 0 -32 14 -40 24 -14 3 9 6 54 6 100 0 68 3 84 15 84 12 0 15 -18 15
-102z m1350 13 c0 -101 -10 -136 -39 -146 -36 -11 -61 11 -61 55 0 46 26 58
32 15 2 -14 8 -26 13 -25 6 0 11 40 13 95 2 87 4 95 22 95 18 0 20 -7 20 -89z
m-1566 31 c3 -4 2 -39 -2 -78 -7 -65 -8 -69 -32 -69 -20 0 -26 6 -28 28 -2 15
1 27 7 27 6 0 11 -9 11 -20 0 -11 5 -20 10 -20 6 0 10 30 10 70 0 62 9 86 24
62z m84 -89 c-3 -76 -4 -78 -28 -78 -21 0 -26 5 -28 33 -2 18 1 32 7 32 6 0
11 -9 11 -20 0 -11 5 -20 10 -20 6 0 10 28 10 65 0 38 4 65 10 65 7 0 10 -29
8 -77z m1572 2 c0 -61 -3 -76 -18 -84 -24 -13 -39 -2 -47 32 -6 21 -4 27 9 27
9 0 16 -8 16 -20 0 -11 5 -20 10 -20 6 0 10 30 10 70 0 40 4 70 10 70 6 0 10
-32 10 -75z"/>
</g>
</svg>
